<svg width="57" height="81" viewBox="0 0 57 81" fill="none" xmlns="http://www.w3.org/2000/svg">
<path fill-rule="evenodd" clip-rule="evenodd" d="M11.7597 37.7514C11.4196 38.1061 11.2511 38.5446 11.3037 39.0757C11.9036 45.1351 13.2501 53.1308 16.1183 59.4488C19.018 65.8363 22.6305 68.9084 27.2765 68.9084C31.9798 68.9084 35.8216 65.7737 39.0475 59.4291C42.2295 53.1709 43.9806 45.2415 44.8938 39.1559C44.9761 38.6068 44.8183 38.1551 44.4816 37.7867C44.1233 37.3946 43.5368 37.0863 42.7835 37.0863H13.4208C12.6947 37.0863 12.1199 37.3757 11.7597 37.7514ZM0.0668913 40.1883C-0.739807 32.0404 5.86978 25.7946 13.4208 25.7946H42.7835C50.5802 25.7946 57.3182 32.4494 56.0605 40.8315C55.0874 47.3165 53.1191 56.6674 49.1129 64.5468C45.1505 72.3399 38.3353 80.2001 27.2765 80.2001C16.0084 80.2001 9.4443 72.0638 5.83645 64.1165C2.19709 56.0997 0.705094 46.6343 0.0668913 40.1883Z" fill="#FD3E81"/>
<path fill-rule="evenodd" clip-rule="evenodd" d="M24.238 20.0658C22.9482 19.4209 21.4551 19.3148 20.0871 19.7708L18.2831 20.3722C15.325 21.3582 12.1276 19.7595 11.1416 16.8014C10.1556 13.8433 11.7542 10.6459 14.7124 9.65988L16.5163 9.05856C20.7254 7.65553 25.3195 7.98202 29.2878 9.9662C30.5776 10.6111 32.0708 10.7172 33.4388 10.2612L35.2428 9.65988C38.2009 8.67384 41.3982 10.2725 42.3843 13.2306C43.3703 16.1888 41.7716 19.3861 38.8135 20.3722L37.0096 20.9735C32.8005 22.3765 28.2064 22.05 24.238 20.0658Z" fill="#47C693"/>
</svg>
