<svg width="97" height="25" viewBox="0 0 97 25" fill="none" xmlns="http://www.w3.org/2000/svg">
<path d="M85.6736 24.1995C84.7241 24.1995 83.9915 24.1181 83.0691 23.9282V20.6182C83.5303 20.6725 83.883 20.6996 84.3714 20.6996C85.2124 20.6996 86.4333 20.6725 86.8131 19.2075L81.2785 5.50659H85.755L89.0107 14.6495H89.0649L92.0493 5.50659H96.3359L91.2625 19.4245C90.0959 22.5988 88.7394 24.1995 85.6736 24.1995Z" fill="#101010"/>
<path d="M79.8238 5.39795C80.2036 5.39795 80.5292 5.39795 81.0175 5.50647V9.30473C80.6648 9.25047 80.4207 9.22334 80.1222 9.22334C78.1688 9.22334 76.3782 10.4442 76.3782 12.9402V19.3973H72.0374V5.50647H76.3782V7.78543H76.4325C77.1107 6.32038 78.3045 5.39795 79.8238 5.39795Z" fill="#101010"/>
<path d="M64.1582 5.07327C67.8479 5.07327 70.2083 7.89484 70.2083 12.4528C70.2083 17.0107 67.8479 19.8322 64.1582 19.8322C62.1505 19.8322 60.6855 18.747 60.1429 18.0145H60.0886V19.3981H55.7477V-0.00012207H60.0886V6.89101H60.1429C60.6855 6.15849 62.1505 5.07327 64.1582 5.07327ZM62.9644 16.5766C64.7279 16.5766 65.7589 15.1658 65.7589 12.4528C65.7589 9.73971 64.7279 8.32892 62.9644 8.32892C61.201 8.32892 60.17 9.73971 60.17 12.4528C60.17 15.1658 61.201 16.5766 62.9644 16.5766Z" fill="#101010"/>
<path d="M47.8625 5.073C51.5522 5.073 53.9126 7.89456 53.9126 12.4525C53.9126 17.0104 51.5522 19.832 47.8625 19.832C45.8548 19.832 44.3898 18.7467 43.8472 18.0142H43.7929V24.2H39.452V5.50708H43.7929V6.89074H43.8472C44.3898 6.15821 45.8548 5.073 47.8625 5.073ZM46.6687 16.5763C48.4322 16.5763 49.4632 15.1655 49.4632 12.4525C49.4632 9.73943 48.4322 8.32865 46.6687 8.32865C44.9052 8.32865 43.8743 9.73943 43.8743 12.4525C43.8743 15.1655 44.9052 16.5763 46.6687 16.5763Z" fill="#101010"/>
<path d="M31.5143 19.832C26.658 19.832 24.7589 17.4987 24.6503 14.7857H28.7199C28.8555 16.1693 29.778 16.8476 31.4329 16.8476C32.7081 16.8476 33.2778 16.4406 33.2778 15.6539C33.2778 14.4059 31.8942 14.2702 29.8865 13.809C27.4448 13.2393 24.9216 12.2626 24.9216 9.441C24.9216 6.83648 27.0921 5.073 30.9989 5.073C35.4482 5.073 37.1846 7.32482 37.3202 9.76656H33.2507C33.115 8.65421 32.5182 8.05734 31.0802 8.05734C29.8865 8.05734 29.371 8.49143 29.371 9.16969C29.371 10.0921 30.1849 10.1464 32.274 10.6347C35.0142 11.2859 37.7272 12.0998 37.7272 15.3283C37.7272 18.2313 35.5296 19.832 31.5143 19.832Z" fill="#101010"/>
<path d="M13.8941 19.8321C11.181 19.8321 9.4718 18.2314 9.4718 15.7625C9.4718 12.8867 11.8322 11.7744 14.7894 11.1504C16.3087 10.8248 18.452 10.6078 18.452 9.22411C18.452 8.46446 17.8551 7.97611 16.6071 7.97611C15.0064 7.97611 14.2739 8.62724 14.1382 9.98376H10.0144C10.1501 7.32498 12.1035 5.04602 16.797 5.04602C20.5682 5.04602 22.6572 6.56532 22.6572 10.8248V16.1966C22.6572 16.9292 22.7386 17.2547 23.1727 17.2547C23.2812 17.2547 23.3626 17.2547 23.5254 17.2276V19.2895C22.6572 19.4523 21.7619 19.5337 21.1379 19.5337C19.4015 19.5337 18.7504 18.8825 18.5334 17.7159H18.4791C17.5024 18.9368 15.9017 19.8321 13.8941 19.8321ZM15.7118 16.8478C17.4482 16.8478 18.452 15.3827 18.452 13.782V12.6154C17.8822 12.8325 17.2311 12.9952 16.0916 13.2665C14.4909 13.6464 13.9212 14.3246 13.9212 15.3013C13.9212 16.3594 14.5995 16.8478 15.7118 16.8478Z" fill="#101010"/>
<path d="M7.7865 5.39795C8.16632 5.39795 8.49189 5.39795 8.98024 5.50647V9.30473C8.62754 9.25047 8.38337 9.22334 8.08493 9.22334C6.13154 9.22334 4.34093 10.4442 4.34093 12.9402V19.3973H6.10352e-05V5.50647H4.34093V7.78543H4.39519C5.07345 6.32038 6.26719 5.39795 7.7865 5.39795Z" fill="#101010"/>
</svg>
