<svg width="96" height="20" viewBox="0 0 96 20" fill="none" xmlns="http://www.w3.org/2000/svg">
<path class="icon" fill-rule="evenodd" clip-rule="evenodd" d="M3.26658 8.20868C3.17211 8.30719 3.1253 8.42899 3.13991 8.57655C3.30656 10.2597 3.68059 12.4807 4.4773 14.2357C5.28277 16.01 6.28624 16.8634 7.57682 16.8634C8.88326 16.8634 9.95045 15.9926 10.8465 14.2303C11.7304 12.4919 12.2168 10.2893 12.4705 8.59881C12.4934 8.4463 12.4495 8.32082 12.356 8.21848C12.2565 8.10955 12.0936 8.02392 11.8843 8.02392H3.72801C3.52631 8.02392 3.36665 8.10433 3.26658 8.20868ZM0.0185809 8.88558C-0.205502 6.6223 1.6305 4.88733 3.72801 4.88733H11.8843C14.0501 4.88733 15.9217 6.73591 15.5723 9.06426C15.302 10.8656 14.7553 13.4631 13.6425 15.6518C12.5418 17.8166 10.6487 20 7.57682 20C4.44677 20 2.62342 17.7399 1.62124 15.5323C0.610303 13.3054 0.195859 10.6761 0.0185809 8.88558Z" fill="#FD3E81"/>
<path class="icon" fill-rule="evenodd" clip-rule="evenodd" d="M6.73284 3.29604C6.37457 3.11691 5.95981 3.08743 5.5798 3.2141L5.0787 3.38113C4.257 3.65503 3.36884 3.21095 3.09494 2.38926C2.82104 1.56756 3.26512 0.679401 4.08682 0.405502L4.58792 0.238468C5.75711 -0.151263 7.03324 -0.0605714 8.13557 0.490592C8.49384 0.669729 8.9086 0.699205 9.28861 0.572536L9.78971 0.405502C10.6114 0.131603 11.4996 0.575681 11.7735 1.39738C12.0474 2.21908 11.6033 3.10723 10.7816 3.38113L10.2805 3.54817C9.11129 3.9379 7.83517 3.84721 6.73284 3.29604Z" fill="#47C693"/>
<path d="M87.1417 19.7844C86.4232 19.7844 85.8688 19.7228 85.1708 19.5791V17.0744C85.5198 17.1154 85.7867 17.1359 86.1563 17.1359C86.7927 17.1359 87.7166 17.1154 88.004 16.0068L83.8158 5.63892H87.2033L89.667 12.5577H89.708L91.9664 5.63892H95.2102L91.371 16.171C90.4882 18.5731 89.4617 19.7844 87.1417 19.7844Z" fill="#101010"/>
<path d="M82.7158 5.55676C83.0033 5.55676 83.2496 5.55676 83.6192 5.63888V8.51314C83.3523 8.47208 83.1675 8.45155 82.9417 8.45155C81.4635 8.45155 80.1085 9.37542 80.1085 11.2642V16.1505H76.8236V5.63888H80.1085V7.36344H80.1495C80.6628 6.2548 81.5661 5.55676 82.7158 5.55676Z" fill="#101010"/>
<path d="M70.8577 5.31038C73.6499 5.31038 75.436 7.44554 75.436 10.8947C75.436 14.3438 73.6499 16.4789 70.8577 16.4789C69.3385 16.4789 68.2298 15.6577 67.8192 15.1034H67.7782V16.1504H64.4933V1.47119H67.7782V6.68592H67.8192C68.2298 6.1316 69.3385 5.31038 70.8577 5.31038ZM69.9544 14.0153C71.2889 14.0153 72.069 12.9477 72.069 10.8947C72.069 8.84161 71.2889 7.77403 69.9544 7.77403C68.6199 7.77403 67.8397 8.84161 67.8397 10.8947C67.8397 12.9477 68.6199 14.0153 69.9544 14.0153Z" fill="#101010"/>
<path d="M58.5275 5.31042C61.3197 5.31042 63.1058 7.44559 63.1058 10.8947C63.1058 14.3438 61.3197 16.479 58.5275 16.479C57.0083 16.479 55.8996 15.6578 55.489 15.1034H55.448V19.7844H52.1631V5.63891H55.448V6.68596H55.489C55.8996 6.13164 57.0083 5.31042 58.5275 5.31042ZM57.6242 14.0153C58.9587 14.0153 59.7388 12.9477 59.7388 10.8947C59.7388 8.84166 58.9587 7.77407 57.6242 7.77407C56.2897 7.77407 55.5095 8.84166 55.5095 10.8947C55.5095 12.9477 56.2897 14.0153 57.6242 14.0153Z" fill="#101010"/>
<path d="M46.1572 16.479C42.4823 16.479 41.0451 14.7134 40.963 12.6603H44.0426C44.1452 13.7074 44.8433 14.2206 46.0956 14.2206C47.0605 14.2206 47.4917 13.9127 47.4917 13.3173C47.4917 12.3729 46.4446 12.2702 44.9254 11.9212C43.0776 11.4901 41.1683 10.751 41.1683 8.61582C41.1683 6.6449 42.8107 5.31042 45.7671 5.31042C49.1341 5.31042 50.4481 7.01445 50.5507 8.86219H47.4712C47.3685 8.02044 46.9168 7.56877 45.8287 7.56877C44.9254 7.56877 44.5353 7.89726 44.5353 8.41052C44.5353 9.10855 45.1512 9.14961 46.7321 9.51916C48.8056 10.0119 50.8587 10.6278 50.8587 13.0709C50.8587 15.2677 49.1957 16.479 46.1572 16.479Z" fill="#101010"/>
<path d="M32.8239 16.479C30.7708 16.479 29.4774 15.2677 29.4774 13.3994C29.4774 11.2232 31.2636 10.3815 33.5014 9.90926C34.6511 9.6629 36.273 9.49865 36.273 8.4516C36.273 7.87675 35.8213 7.5072 34.8769 7.5072C33.6656 7.5072 33.1113 7.99993 33.0086 9.02645H29.888C29.9907 7.01447 31.4689 5.28992 35.0206 5.28992C37.8744 5.28992 39.4552 6.43962 39.4552 9.66289V13.7279C39.4552 14.2822 39.5168 14.5286 39.8453 14.5286C39.9274 14.5286 39.989 14.5286 40.1122 14.5081V16.0684C39.4552 16.1916 38.7777 16.2532 38.3055 16.2532C36.9915 16.2532 36.4988 15.7604 36.3346 14.8776H36.2935C35.5544 15.8015 34.3431 16.479 32.8239 16.479ZM34.1994 14.2206C35.5134 14.2206 36.273 13.112 36.273 11.9007V11.0179C35.8418 11.1821 35.3491 11.3053 34.4868 11.5106C33.2755 11.7981 32.8444 12.3113 32.8444 13.0504C32.8444 13.8511 33.3577 14.2206 34.1994 14.2206Z" fill="#101010"/>
<path d="M28.202 5.55676C28.4895 5.55676 28.7358 5.55676 29.1054 5.63888V8.51314C28.8385 8.47208 28.6537 8.45155 28.4279 8.45155C26.9497 8.45155 25.5947 9.37542 25.5947 11.2642V16.1505H22.3098V5.63888H25.5947V7.36344H25.6357C26.149 6.2548 27.0523 5.55676 28.202 5.55676Z" fill="#101010"/>
</svg>
