<svg width="878" height="785" viewBox="0 0 878 785" fill="none" xmlns="http://www.w3.org/2000/svg">
<g filter="url(#filter0_f_1_34)">
<path d="M252.847 325.333C252.847 284.86 225.865 249.494 212.374 236.871C149.063 166.043 343.911 204.203 452.32 292.376C560.729 380.549 442.202 438.946 343.911 512.375C245.62 585.804 252.847 375.924 252.847 325.333Z" fill="url(#paint0_linear_1_34)"/>
</g>
<g filter="url(#filter1_f_1_34)">
<path d="M553.809 339.503C594.143 336.158 627.157 306.344 638.623 291.856C703.974 222.907 682.052 420.242 603.143 535.569C524.234 650.897 456.239 537.602 374.935 445.718C293.632 353.833 503.391 343.686 553.809 339.503Z" fill="url(#paint1_linear_1_34)"/>
</g>
<defs>
<filter id="filter0_f_1_34" x="0" y="0" width="695.437" height="727.797" filterUnits="userSpaceOnUse" color-interpolation-filters="sRGB">
<feFlood flood-opacity="0" result="BackgroundImageFix"/>
<feBlend mode="normal" in="SourceGraphic" in2="BackgroundImageFix" result="shape"/>
<feGaussianBlur stdDeviation="100" result="effect1_foregroundBlur_1_34"/>
</filter>
<filter id="filter1_f_1_34" x="156.418" y="77.594" width="720.675" height="706.795" filterUnits="userSpaceOnUse" color-interpolation-filters="sRGB">
<feFlood flood-opacity="0" result="BackgroundImageFix"/>
<feBlend mode="normal" in="SourceGraphic" in2="BackgroundImageFix" result="shape"/>
<feGaussianBlur stdDeviation="100" result="effect1_foregroundBlur_1_34"/>
</filter>
<linearGradient id="paint0_linear_1_34" x1="174.503" y1="200.156" x2="427.169" y2="486.935" gradientUnits="userSpaceOnUse">
<stop stop-color="#5E8778"/>
<stop offset="1" stop-color="#78FF86"/>
</linearGradient>
<linearGradient id="paint1_linear_1_34" x1="672.081" y1="251.08" x2="407.171" y2="526.589" gradientUnits="userSpaceOnUse">
<stop stop-color="#575EFF"/>
<stop offset="1" stop-color="#E478FF"/>
</linearGradient>
</defs>
</svg>
